<?xml version="1.0" encoding="utf-8"?>
<!-- Generator: Adobe Illustrator 26.5.0, SVG Export Plug-In . SVG Version: 6.00 Build 0)  -->
<svg version="1.1" id="Layer_1" xmlns="http://www.w3.org/2000/svg" xmlns:xlink="http://www.w3.org/1999/xlink" x="0px" y="0px"
	 viewBox="0 0 1920 1080" style="enable-background:new 0 0 1920 1080;" xml:space="preserve">
<style type="text/css">
	.st0{fill:#FFFFFF;}
</style>
<g>
	<path class="st0" d="M829,592.3c25.1,0,42.6-19.7,42.6-52.3c0-32.6-17.1-52-42.3-52c-25.2,0-42.7,19.6-42.7,52.2
		S803.9,592.3,829,592.3z M828.9,508.1c13.5,0,22.9,11.7,22.9,32.2c0,20.5-9,31.9-22.5,31.9c-13.5,0-22.9-11.7-22.9-32.2
		C806.6,519.6,815.5,508.2,828.9,508.1z"/>
	<path class="st0" d="M1022.6,546.2c0-5.6-0.3-18.3-0.3-22.1c1.2,2.6,4.4,7.7,6.7,11.4l35.5,55.2h17.2v-101h-19v42.7
		c0,5.7,0.2,18.4,0.2,22.1c-1.2-2.6-4.4-7.7-6.7-11.4l-34.2-53.4h-18.5v101h19V546.2z"/>
	<path class="st0" d="M1256.1,592.3c15.6,0.7,29.9-8.5,35.7-22.8l-16.3-10.1c-5.1,9-10.2,12.9-18.9,12.9
		c-14.5,0-22.9-13.3-22.9-32.1c0-18.8,8.3-32.1,22.8-32.1c7.6-0.4,14.6,4,17.6,10.9l17.9-8.7c-5.8-14.1-20-23.1-35.3-22.4
		c-25.3,0-42.9,21.4-42.9,52.1C1213.9,572.1,1230.9,592.3,1256.1,592.3z"/>
	<path class="st0" d="M1693.8,540.7c0-36.9-20.4-50.5-48-50.5h-30.2v101.1h28.8C1669.2,591.3,1693.8,576.3,1693.8,540.7z
		 M1635.1,509.8h10c20.4,0,28.8,10.1,28.8,30.9c0,18.4-9.1,30.9-29.3,30.9h-9.5V509.8z"/>
	<path class="st0" d="M1545.5,592.3c24.6,0,39.3-16.9,39.3-46.2v-56.5h-19.4v56.7c0,16.2-7.6,26.1-19.9,26.1s-19.7-10.2-19.7-26.4
		v-56.5h-19.3v56.9C1506.5,575.7,1522.2,592.3,1545.5,592.3z"/>
	<path class="st0" d="M731.8,572.5c-9.6,0.2-18.7-4.1-24.7-11.5l-13.9,13c8.6,12.1,22.8,19,37.7,18.4c26.3,0,37.9-13,37.6-32.2
		c0-21.9-17-27.4-32.2-31.2c-15.3-3.8-19.4-5.8-19.4-12.1c0-4.5,3.4-9.1,13.8-9.1c8.5,0.1,16.5,3.9,21.9,10.4l13.9-14.2
		c-8.7-10.3-21.6-16.1-35.2-15.9c-19,0-34.4,11.2-34.4,29.6c0,19.9,12,25.8,30.2,30.1c18.2,4.3,21.5,7.2,21.5,13.7
		C748.6,569.2,743.3,572.5,731.8,572.5z"/>
	<path class="st0" d="M1190.4,540.2c0-37-20.4-50.5-48-50.5h-30.2v101h28.8C1165.8,590.7,1190.4,575.7,1190.4,540.2z M1131.5,509.2
		h10.2v0c20.4,0,28.8,10.3,28.6,30.9c0,18.4-9,30.9-29.3,30.9h-9.5V509.2z"/>
	<path class="st0" d="M235.2,608.6c2.3,0,4.2-1.9,4.2-4.2c4.6-20.8,7-37.4,0.4-58c-0.2-2.4-2.2-4.1-4.6-4.1c-2.4,0-4.4,1.8-4.6,4.1
		c-5.4,20.4-3.6,37.5,0.4,58C231,606.7,232.9,608.6,235.2,608.6z"/>
	<path class="st0" d="M973.8,489.6h-19.3v56.7c0,16.2-7.6,26.1-19.9,26.1c-12.3,0-19.7-10.2-19.7-26.4v-56.5h-19.3v56.9
		c0,29.1,15.7,45.8,39,45.8c24.6,0,39.2-16.9,39.2-46.2V489.6z"/>
	<path class="st0" d="M1439.9,592.3c25.1,0,42.6-19.7,42.6-52.3c0-32.6-17.1-52-42.3-52c-25.2,0-42.7,19.6-42.7,52.2
		S1414.8,592.3,1439.9,592.3z M1439.9,508.1c13.5,0,22.9,11.7,22.9,32.2c0,20.5-8.9,31.9-22.5,31.9c-13.5,0-22.9-11.7-22.9-32.2
		C1417.5,519.6,1426.4,508.2,1439.9,508.1z"/>
	<path class="st0" d="M429.8,627h133.4c29.2,0,54.6-22.3,55.4-51.4c0.4-14.3-5-28.2-15-38.5c-10-10.3-23.8-16.1-38.3-16.1
		c-4.8,0-9.6,0.6-14.2,2c-5.2-24.1-20.5-45-41.9-57.5c-13.6-8.1-29.2-12.3-45-12.2c-25.8,0-38,8.3-38,8.3c-4.7,2-7.6,6.7-7.4,11.7
		V616C418.7,622,423.7,627,429.8,627z"/>
	<polygon class="st0" points="1339,489.6 1319.8,489.6 1319.8,590.7 1387.4,590.7 1387.4,570.8 1339,570.8 	"/>
	<path class="st0" d="M266.8,619.5c4.4-30.9,6.5-57,0.2-87.8c-0.3-2.3-2.3-4-4.6-4c-2.3,0-4.3,1.7-4.6,4
		c-5.5,30.4-3.8,57.3,0.2,87.8C258.4,624.1,266.4,624,266.8,619.5z"/>
	<path class="st0" d="M397.8,627.4c2.4,0,4.3-1.9,4.3-4.3c7-48.3,4-92.3,0-140.7c0-2.4-1.9-4.3-4.3-4.3s-4.3,1.9-4.3,4.3
		c-3.6,47.9-6.5,92.9,0,140.7C393.4,625.5,395.4,627.4,397.8,627.4z"/>
	<path class="st0" d="M370.6,627.2c2.3,0,4.2-1.7,4.5-3.9c6.1-43.3,4.7-81.1,0.1-124.2c0-2.5-2-4.5-4.5-4.5c-2.5,0-4.5,2-4.5,4.5
		c-4.2,42.8-5.4,81.5,0,124.2C366.4,625.5,368.3,627.2,370.6,627.2z"/>
	<path class="st0" d="M316.7,627.4c2.3,0,4.2-1.7,4.4-4c5.4-38.5,5.4-77.5,0.1-115.9c0-2.5-2-4.5-4.5-4.5c-2.5,0-4.5,2-4.5,4.5
		c-5,38.5-5,77.5,0,115.9C312.5,625.6,314.4,627.4,316.7,627.4z"/>
	<path class="st0" d="M343.7,627.5c2.4,0,4.3-1.9,4.3-4.3c6.4-44.3,4.4-84,0-128.2c0-2.4-1.9-4.3-4.3-4.3c-2.4,0-4.3,1.9-4.3,4.3
		c-4.2,43.7-6.2,84.6,0,128.2C339.4,625.5,341.3,627.5,343.7,627.5z"/>
	<path class="st0" d="M289.3,627.7c2.3,0,4.2-1.9,4.2-4.2c4.2-30.6,7.3-57.2,0.5-87.4c-0.2-2.3-2.1-4-4.4-4c-2.3,0-4.2,1.7-4.4,4
		c-6.5,29.9-3.4,57.3,0,87.4C285.1,625.8,287,627.7,289.3,627.7z"/>
</g>
</svg>
