<svg xmlns="http://www.w3.org/2000/svg" shape-rendering="geometricPrecision" text-rendering="geometricPrecision" image-rendering="optimizeQuality" fill-rule="evenodd" clip-rule="evenodd" viewBox="0 0 512 512"><g fill-rule="nonzero"><path fill="#fff" d="M496.27 378.17c-2.1-6.96-12.17-11.86-12.17-11.86h.01c-.93-.52-1.79-.96-2.51-1.3-16.75-8.11-31.58-17.83-44.09-28.9-10.05-8.88-18.65-18.68-25.57-29.1-8.43-12.71-12.38-23.32-14.1-29.07-.94-3.74-.79-5.23 0-7.18.67-1.63 2.58-3.22 3.52-3.93 5.67-4 14.77-9.9 20.36-13.52 4.84-3.13 9.01-5.84 11.44-7.53 7.87-5.5 13.24-11.1 16.42-17.13 4.12-7.81 4.6-16.41 1.4-24.87-4.32-11.41-14.97-18.22-28.49-18.22-3.02 0-6.1.34-9.18 1.01-7.74 1.68-15.1 4.43-21.26 6.83a.666.666 0 01-.91-.65c.66-15.25 1.38-35.73-.31-55.22-1.52-17.61-5.14-32.45-11.07-45.38-5.96-12.99-13.68-22.62-19.74-29.55-5.79-6.62-15.91-16.35-31.2-25.1-21.53-12.32-46.03-18.56-72.82-18.56-26.72 0-51.2 6.24-72.76 18.56-16.18 9.24-26.53 19.7-31.25 25.1-6.06 6.93-13.79 16.56-19.75 29.55-5.93 12.93-9.55 27.77-11.07 45.38-1.69 19.53-1.01 38.39-.31 55.21.02.49-.46.84-.92.66-6.15-2.4-13.52-5.15-21.25-6.83-3.07-.67-6.16-1.01-9.18-1.01-13.52 0-24.17 6.81-28.49 18.22-3.2 8.46-2.71 17.06 1.4 24.87 3.18 6.03 8.56 11.63 16.42 17.13 2.43 1.69 6.61 4.4 11.44 7.53 5.48 3.55 14.32 9.28 20.01 13.27.7.5 3.09 2.31 3.86 4.18.81 2 .95 3.51-.08 7.48-1.76 5.81-5.72 16.28-14 28.77-6.92 10.42-15.53 20.22-25.58 29.1-12.51 11.07-27.34 20.79-44.09 28.9-.78.38-1.73.86-2.76 1.45v-.01s-9.99 5.12-11.88 11.72c-2.79 9.75 4.63 18.88 12.23 23.78 12.4 8 27.5 12.3 36.26 14.63 2.44.65 4.65 1.24 6.66 1.87 1.26.42 4.41 1.61 5.76 3.34 1.7 2.18 1.9 4.9 2.51 7.94.98 5.13 3.11 11.51 9.46 15.89 6.98 4.83 15.85 5.17 27.08 5.6 11.75.45 26.37 1.01 43.1 6.53 7.75 2.56 14.78 6.88 22.91 11.88 16.99 10.44 38.14 23.43 74.27 23.43 36.15 0 57.44-13.06 74.55-23.56 8.08-4.96 15.06-9.25 22.64-11.75 16.73-5.53 31.35-6.08 43.1-6.53 11.22-.43 20.09-.77 27.08-5.6 6.79-4.69 8.76-11.68 9.64-16.97.48-2.6.81-4.94 2.31-6.86 1.27-1.64 4.18-2.8 5.56-3.27 2.06-.65 4.35-1.27 6.88-1.94 8.76-2.33 19.73-5.11 33.1-12.66 15.98-9.03 17.07-20.24 15.41-25.75z"/><path d="M474.29 391.99c-21.88 12.07-36.44 10.79-47.75 18.07-9.61 6.18-3.93 19.53-10.91 24.35-8.57 5.93-33.95-.43-66.7 10.4-27.02 8.93-44.27 34.62-92.91 34.62-48.75 0-65.49-25.57-92.91-34.62-32.76-10.82-58.13-4.47-66.71-10.4-6.97-4.82-1.29-18.17-10.9-24.35-11.31-7.28-25.87-6-47.75-18.07-13.94-7.7-6.04-12.46-1.39-14.71 79.28-38.38 91.92-97.64 92.49-102.1.68-5.33 1.44-9.51-4.42-14.93-5.67-5.24-30.8-20.79-37.76-25.65-11.54-8.05-16.62-16.11-12.88-26 2.59-6.83 8.99-9.41 15.74-9.41 2.1 0 4.23.25 6.28.7 12.67 2.75 24.97 9.09 32.08 10.81.97.24 1.84.35 2.61.35 3.78 0 5.12-1.91 4.87-6.25-.81-13.85-2.78-40.86-.6-66.09 3-34.71 14.19-51.92 27.5-67.13 6.39-7.31 36.38-39.01 93.75-39.01 57.52 0 87.36 31.7 93.75 39.01 13.31 15.21 24.5 32.42 27.5 67.13 2.18 25.23.3 52.25-.6 66.09-.29 4.56 1.08 6.25 4.87 6.25.77 0 1.64-.11 2.61-.35 7.11-1.72 19.41-8.06 32.08-10.81 2.05-.45 4.18-.7 6.28-.7 6.74 0 13.15 2.58 15.74 9.41 3.74 9.89-1.34 17.95-12.88 26-6.97 4.86-32.09 20.41-37.76 25.65-5.86 5.42-5.1 9.6-4.42 14.93.57 4.46 13.21 63.72 92.49 102.1 4.65 2.25 12.55 7.01-1.39 14.71zM268.94 4.4h-25.83c-24.4 1.74-46.98 8.47-67.29 20.08-17.18 9.81-28.57 20.78-35.11 28.25-15.7 17.97-30.75 40.52-34.46 83.51-1.06 12.22-1.32 24.73-1.14 36.43-1.06-.27-2.13-.52-3.22-.76-4.11-.89-8.27-1.35-12.36-1.35-19.71 0-36 10.7-42.51 27.91-4.7 12.42-3.93 25.62 2.15 37.17 4.33 8.2 11.23 15.54 21.11 22.43 2.63 1.84 6.71 4.48 11.86 7.83 2.79 1.8 6.86 4.44 10.86 7.08.6.42 2.76 1.99 3.48 3.49.82 1.71.85 3.57-.38 6.97-2.12 4.67-5.14 10.36-9.44 16.65-12.74 18.64-30.97 34.44-54.26 47.05-12.34 6.57-25.16 10.91-30.57 25.62C.61 376.06 0 379.49 0 382.97c.01 8.23 3.5 16.7 10.79 24.19l.01-.02c3.41 3.67 7.7 6.92 13.11 9.91 12.71 7.01 23.51 10.45 32.01 12.81 1.49.44 4.95 1.56 6.46 2.89 3.78 3.3 3.24 8.29 8.29 15.58 3.04 4.54 6.57 7.63 9.46 9.63 10.57 7.31 22.45 7.76 35.03 8.24 11.37.44 24.26.93 38.97 5.79 6.1 2.02 12.43 5.91 19.77 10.42 15.79 9.7 36.82 22.62 70.09 25.19h24.03c33.32-2.58 54.49-15.56 70.39-25.32 7.28-4.47 13.58-8.33 19.5-10.29 14.72-4.86 27.6-5.36 38.97-5.79 12.58-.48 24.45-.93 35.03-8.24 3.32-2.3 7.48-6.03 10.78-11.75 3.62-6.15 3.53-10.49 6.93-13.46 1.39-1.22 4.43-2.27 6.07-2.77 8.57-2.36 19.52-5.8 32.44-12.93 5.73-3.17 10.22-6.62 13.73-10.56l.13-.16c9.72-10.47 12.17-22.74 8.18-33.57-3.56-9.68-10.33-14.86-18.05-19.15a60.28 60.28 0 00-3.87-2.05c-2.31-1.18-4.66-2.34-7-3.56-24.06-12.75-42.84-28.84-55.88-47.91-4.39-6.44-7.46-12.25-9.58-16.98-1.11-3.19-1.06-4.99-.27-6.64.61-1.26 2.22-2.56 3.08-3.2 4.13-2.73 8.41-5.51 11.29-7.37 5.16-3.35 9.23-5.99 11.87-7.83 9.88-6.89 16.78-14.23 21.1-22.43 6.09-11.55 6.86-24.75 2.16-37.17-6.51-17.21-22.8-27.91-42.51-27.91-4.09 0-8.24.46-12.36 1.35-1.09.24-2.16.49-3.22.76.17-11.7-.08-24.21-1.14-36.43-3.71-42.99-18.76-65.54-34.47-83.51-6.54-7.49-17.94-18.47-35.04-28.25-20.29-11.6-42.89-18.34-67.34-20.08z"/></g></svg>